#format: frame checksums
#version: 2
#hash: MD5
#tb 0: 1/30
#media_type 0: video
#codec_id 0: rawvideo
#dimensions 0: 160x90
#sar 0: 1/1
#stream#, dts,        pts, duration,     size, hash
0,          0,          0,        1,    21600, 5abd6c163522c7e882f7e9c369293bf9
0,          1,          1,        1,    21600, 5c11d8cc9cc9102d0ef5afd1dc64aff1
0,          2,          2,        1,    21600, cbeffa9ea9d682af77d3fd0fdf12c8c1
0,          3,          3,        1,    21600, ea7cec515fcf8ccbc932d9e9b472cdc7
0,          4,          4,        1,    21600, 23038b711dbac95ce710657b1fef5901
0,          5,          5,        1,    21600, e0d6fb46bb5c0d939ee33af82b887668
0,          6,          6,        1,    21600, 694518f14d3a2bd3c319bc0b098c78bb
0,          7,          7,        1,    21600, c1c7394bd4236afbc773af52ef7a10ea
0,          8,          8,        1,    21600, 4d8d3b2c9a637f963521585ea879357b
0,          9,          9,        1,    21600, b4444dc3cbf1b6cdd8047d3dcd497ffd
0,         10,         10,        1,    21600, 65e5d667ec9ceb636e21357f032ce800
0,         11,         11,        1,    21600, fd9a4c67598051074387b640df7edaa9
0,         12,         12,        1,    21600, 0e54e22d90f6296ae6989c83846272cd
0,         13,         13,        1,    21600, db4b1727450243b202bfec5ed6c73ae0
0,         14,         14,        1,    21600, ab37a84be075ca42cc7351ff9fb1cb47
0,         15,         15,        1,    21600, ae4d2d297e646bd8e05e76b457d9b576
0,         16,         16,        1,    21600, e7cfd580e3c3d7c3f2f5136d1e548595
0,         17,         17,        1,    21600, cbec09314a0b7ad53f4893eb474e1c65
0,         18,         18,        1,    21600, e1fa89cd63c37496bc86f18694324d88
0,         19,         19,        1,    21600, e9655b151253950313810228278ca104
0,         20,         20,        1,    21600, 69ba31c0eff7bc93f4180173d8e64c60
0,         21,         21,        1,    21600, 368a1f6a1172d7d56f695153b234a330
0,         22,         22,        1,    21600, 6c298b196e16c64f7c2f407ba1242937
0,         23,         23,        1,    21600, bf54474112ed5592c4d890e3313881a0
0,         24,         24,        1,    21600, 945d49abedb0606b6a009c8b5d8face3
0,         25,         25,        1,    21600, dd6ebef7b6f24619910de811918d3437
0,         26,         26,        1,    21600, 7952346fc0f1eff3914e0d7646b3cf28
0,         27,         27,        1,    21600, 26bd0d6b21e8a2df17af8d1446fba745
0,         28,         28,        1,    21600, b0d91600416716d81c1f73ac141a0b62
0,         29,         29,        1,    21600, 08f16698beb9cc15f7115961bd69e995
